<svg xmlns="http://www.w3.org/2000/svg" viewBox="0 0 100 100">
  <defs>
    <linearGradient id="notebookGrad" x1="0%" y1="0%" x2="100%" y2="100%">
      <stop offset="0%" style="stop-color:#A8E6CF;stop-opacity:1" />
      <stop offset="100%" style="stop-color:#7FD3B8;stop-opacity:1" />
    </linearGradient>
  </defs>
  <!-- Notebook -->
  <rect x="20" y="15" width="60" height="70" rx="4" fill="url(#notebookGrad)" stroke="#5FB89A" stroke-width="2"/>
  <!-- Spiral binding -->
  <circle cx="20" cy="25" r="2" fill="#5FB89A"/>
  <circle cx="20" cy="35" r="2" fill="#5FB89A"/>
  <circle cx="20" cy="45" r="2" fill="#5FB89A"/>
  <circle cx="20" cy="55" r="2" fill="#5FB89A"/>
  <circle cx="20" cy="65" r="2" fill="#5FB89A"/>
  <circle cx="20" cy="75" r="2" fill="#5FB89A"/>
  <!-- Lines on page -->
  <line x1="30" y1="30" x2="70" y2="30" stroke="#5FB89A" stroke-width="1.5" opacity="0.6"/>
  <line x1="30" y1="40" x2="70" y2="40" stroke="#5FB89A" stroke-width="1.5" opacity="0.6"/>
  <line x1="30" y1="50" x2="70" y2="50" stroke="#5FB89A" stroke-width="1.5" opacity="0.6"/>
  <!-- Checkmark -->
  <path d="M 35 45 L 42 52 L 55 38" stroke="#5FB89A" stroke-width="3" fill="none" stroke-linecap="round" stroke-linejoin="round"/>
  <!-- Sparkle -->
  <path d="M 75 25 L 77 30 L 82 28 L 77 31 L 75 36 L 73 31 L 68 28 L 73 30 Z" fill="#FFD4A3" opacity="0.8"/>
</svg>


